# xmcd
#
# Track frame offsets:
#	150
#	21875
#	45087
#	63725
#	83447
#	105770
#	125822
#	144240
#	165875
#	185210
#	205460
#	226625
#	248337
#
# Disc length: 3572 seconds
#
# Revision: 1
# Processed by: cddbd v1.5.1PL0 Copyright (c) Steve Scherf et al.
# Submitted via: CDex 1.50Beta5
#
DISCID=970df20d
DTITLE=鈴木紗理奈 - 素〜seven singles and more…〜
DYEAR=2000
DGENRE=Pop
TTITLE0=Long Journey,The
TTITLE1=Night and Day
TTITLE2=シャレになんない
TTITLE3=好奇心
TTITLE4=sola
TTITLE5=オオカミ少女
TTITLE6=Boo Bee MAGIC
TTITLE7=セツナイキモチ
TTITLE8=ガム
TTITLE9=D.F.L
TTITLE10=DIARY
TTITLE11=ひかり
TTITLE12=ボクの夜
EXTD=
EXTT0=
EXTT1=
EXTT2=
EXTT3=
EXTT4=
EXTT5=
EXTT6=
EXTT7=
EXTT8=
EXTT9=
EXTT10=
EXTT11=
EXTT12=
PLAYORDER=
